<?xml version="1.0" encoding="UTF-8"?>
<svg id="Layer_1" xmlns="http://www.w3.org/2000/svg" version="1.1" viewBox="0 0 360 360">
  <!-- Generator: Adobe Illustrator 29.6.1, SVG Export Plug-In . SVG Version: 2.1.1 Build 9)  -->
  <defs>
    <style>
      .st0 {
        fill: none;
        stroke: #000;
        stroke-miterlimit: 10;
        stroke-width: 16px;
      }
    </style>
  </defs>
  <g id="Layer_2">
    <g>
      <circle class="st0" cx="178" cy="180" r="108"/>
      <path d="M185.3,226.8c-.1,2.6,1.1,4.5,3.8,5.8,2.6,1.2,6.4,1.9,11.5,1.9v6h-45.7v-6c10,0,15.1-2.6,15.1-7.7v-59.9c0-5.2-5-7.8-15.1-7.8v-5.5h30.4v73.2h0ZM188,123.5c0,3.3-1.2,6.2-3.5,8.6s-5.2,3.6-8.5,3.6-6.2-1.2-8.6-3.6-3.6-5.2-3.6-8.6,1.2-6.1,3.6-8.5,5.2-3.5,8.6-3.5,6.1,1.2,8.5,3.5,3.5,5.2,3.5,8.5Z"/>
    </g>
  </g>
</svg>